<svg id="Layer_1" data-name="Layer 1" xmlns="http://www.w3.org/2000/svg" xmlns:xlink="http://www.w3.org/1999/xlink" viewBox="0 0 741.18 741.18"><defs><style>.cls-1{fill:#2e373a;stroke:#231f20;stroke-miterlimit:10;}.cls-2{fill:url(#linear-gradient);}.cls-3{fill:url(#linear-gradient-2);}.cls-4{fill:url(#linear-gradient-3);}.cls-5{fill:url(#linear-gradient-4);}.cls-6{fill:url(#linear-gradient-5);}</style><linearGradient id="linear-gradient" x1="580.73" y1="499.41" x2="709.48" y2="499.41" gradientUnits="userSpaceOnUse"><stop offset="0.05" stop-color="#b1d0e0"/><stop offset="0.62" stop-color="#6998ab"/></linearGradient><linearGradient id="linear-gradient-2" x1="422.99" y1="311.98" x2="483.23" y2="311.98" gradientUnits="userSpaceOnUse"><stop offset="0.17" stop-color="#292929"/><stop offset="0.79" stop-color="#6998ab"/></linearGradient><linearGradient id="linear-gradient-3" x1="435.16" y1="501.49" x2="563.91" y2="501.49" xlink:href="#linear-gradient"/><linearGradient id="linear-gradient-4" x1="278.4" y1="309" x2="338.64" y2="309" xlink:href="#linear-gradient-2"/><linearGradient id="linear-gradient-5" x1="290.52" y1="498.51" x2="419.27" y2="498.51" xlink:href="#linear-gradient"/></defs><circle class="cls-1" cx="370.59" cy="370.59" r="370.09"/><path class="cls-2" d="M620.41,408.89c7.75-44,43.31-43.31,43.31-43.31l45.76-.69L669,589.51s-5.73,44.42-44.42,44.42H580.73" transform="translate(-129.41 -129.41)"/><polygon class="cls-3" points="434.45 237.56 483.24 323.8 472.2 386.4 422.99 301.18 434.45 237.56"/><path class="cls-4" d="M474.84,411c7.76-44,43.31-43.31,43.31-43.31l45.76-.69L523.45,591.59S517.72,636,479,636H435.16" transform="translate(-129.41 -129.41)"/><polygon class="cls-5" points="289.86 234.58 338.64 320.82 327.61 383.42 278.4 298.2 289.86 234.58"/><path class="cls-6" d="M330.2,408c7.76-44,43.31-43.31,43.31-43.31l45.76-.69L378.81,588.61S373.08,633,334.39,633H290.52" transform="translate(-129.41 -129.41)"/></svg>