<svg id="Layer_1" data-name="Layer 1" xmlns="http://www.w3.org/2000/svg" xmlns:xlink="http://www.w3.org/1999/xlink" viewBox="0 0 2096.16 741.18"><defs><style>.cls-1{fill:#2e373a;stroke:#231f20;stroke-miterlimit:10;}.cls-2{fill:url(#linear-gradient);}.cls-3{fill:url(#linear-gradient-2);}.cls-4{fill:url(#linear-gradient-3);}.cls-5{fill:url(#linear-gradient-4);}.cls-6{fill:url(#linear-gradient-5);}.cls-7{font-size:450px;fill:#b1d0e0;font-family:Gotham-Medium, Gotham;font-weight:500;}</style><linearGradient id="linear-gradient" x1="652.99" y1="649.41" x2="781.74" y2="649.41" gradientUnits="userSpaceOnUse"><stop offset="0.05" stop-color="#b1d0e0"/><stop offset="0.62" stop-color="#6998ab"/></linearGradient><linearGradient id="linear-gradient-2" x1="422.99" y1="311.98" x2="483.23" y2="311.98" gradientUnits="userSpaceOnUse"><stop offset="0.17" stop-color="#292929"/><stop offset="0.79" stop-color="#6998ab"/></linearGradient><linearGradient id="linear-gradient-3" x1="507.42" y1="651.49" x2="636.17" y2="651.49" xlink:href="#linear-gradient"/><linearGradient id="linear-gradient-4" x1="278.4" y1="309" x2="338.64" y2="309" xlink:href="#linear-gradient-2"/><linearGradient id="linear-gradient-5" x1="362.79" y1="648.51" x2="491.53" y2="648.51" xlink:href="#linear-gradient"/></defs><circle class="cls-1" cx="370.59" cy="370.59" r="370.09"/><path class="cls-2" d="M692.67,558.89c7.75-44,43.31-43.31,43.31-43.31l45.76-.69L741.27,739.51s-5.73,44.42-44.42,44.42H653" transform="translate(-201.67 -279.41)"/><polygon class="cls-3" points="434.45 237.56 483.24 323.8 472.2 386.4 422.99 301.18 434.45 237.56"/><path class="cls-4" d="M547.1,561c7.76-44,43.32-43.31,43.32-43.31l45.75-.69L595.71,741.59S590,786,551.29,786H507.42" transform="translate(-201.67 -279.41)"/><polygon class="cls-5" points="289.86 234.58 338.64 320.82 327.61 383.42 278.4 298.2 289.86 234.58"/><path class="cls-6" d="M402.46,558c7.76-44,43.32-43.31,43.32-43.31l45.75-.69L451.07,738.61S445.34,783,406.65,783H362.79" transform="translate(-201.67 -279.41)"/><text class="cls-7" transform="translate(793.87 523.59)">Muzzi</text></svg>